<svg width="36" height="36" viewBox="0 0 36 36" fill="none" xmlns="http://www.w3.org/2000/svg">
<path d="M18 0C8.07158 0 0 8.07158 0 18C0 27.9284 8.07158 36 18 36C27.9284 36 36 27.9284 36 18C36 8.07158 27.9284 0 18 0ZM18 10.3074C21.1074 10.3074 23.6463 12.8463 23.6463 15.9537C23.6463 19.0611 21.1074 21.6 18 21.6C14.8926 21.6 12.3537 19.0611 12.3537 15.9537C12.3537 12.8463 14.8926 10.3074 18 10.3074ZM8.14737 28.9137V28.08C8.14737 25.6926 10.08 23.7221 12.5053 23.7221H23.4947C25.8821 23.7221 27.8526 25.6547 27.8526 28.08V28.9137C25.2379 31.2632 21.7895 32.7032 18 32.7032C14.2105 32.7032 10.7621 31.2632 8.14737 28.9137Z" fill="#242A30"/>
</svg>
