<svg width="24" height="24" viewBox="0 0 24 24" fill="none" xmlns="http://www.w3.org/2000/svg">
<path d="M19.4183 20.0116C19.4183 20.5546 18.9778 21 18.4327 21H6.56657C6.02409 21 5.58105 20.5562 5.58105 20.0116C5.58105 16.1906 8.67862 13.093 12.4997 13.093C16.3207 13.093 19.4183 16.1906 19.4183 20.0116ZM12.4997 14.2791C9.39981 14.2791 6.87463 16.7395 6.77045 19.814H18.2289C18.1247 16.7395 15.5995 14.2791 12.4997 14.2791ZM12.4997 12.3023C10.207 12.3023 8.3485 10.4438 8.3485 8.15116C8.3485 5.85854 10.207 4 12.4997 4C14.7923 4 16.6508 5.85854 16.6508 8.15116C16.6508 10.4438 14.7923 12.3023 12.4997 12.3023ZM12.4997 11.1163C14.1372 11.1163 15.4648 9.78875 15.4648 8.15116C15.4648 6.51357 14.1372 5.18605 12.4997 5.18605C10.8621 5.18605 9.53454 6.51357 9.53454 8.15116C9.53454 9.78875 10.8621 11.1163 12.4997 11.1163Z" fill="white"/>
</svg>
