<svg width="16" height="16" viewBox="0 0 16 16" fill="none" xmlns="http://www.w3.org/2000/svg">
<mask id="mask0_16_769" style="mask-type:alpha" maskUnits="userSpaceOnUse" x="0" y="0" width="16" height="16">
<rect x="0.0354004" y="0.0354004" width="15.9292" height="15.9292" fill="#D9D9D9"/>
</mask>
<g mask="url(#mask0_16_769)">
<path d="M7.99997 10.5146L5.1664 7.68101L5.86595 6.96121L7.50218 8.59744V3.02222H8.49776V8.59744L10.134 6.96121L10.8335 7.68101L7.99997 10.5146ZM4.22193 12.978C3.88664 12.978 3.60285 12.8618 3.37055 12.6295C3.13825 12.3972 3.02209 12.1134 3.02209 11.7781V9.97846H4.01767V11.7781C4.01767 11.8292 4.03896 11.876 4.08155 11.9185C4.12403 11.9611 4.17082 11.9824 4.22193 11.9824H11.778C11.8291 11.9824 11.8759 11.9611 11.9184 11.9185C11.961 11.876 11.9823 11.8292 11.9823 11.7781V9.97846H12.9778V11.7781C12.9778 12.1134 12.8617 12.3972 12.6294 12.6295C12.3971 12.8618 12.1133 12.978 11.778 12.978H4.22193Z" fill="#1FBA41"/>
</g>
</svg>
