<svg width="28" height="27" viewBox="0 0 28 27" fill="none" xmlns="http://www.w3.org/2000/svg">
<mask id="mask0_44_2725" style="mask-type:alpha" maskUnits="userSpaceOnUse" x="0" y="0" width="28" height="27">
<rect x="0.824585" y="0.100342" width="26.8997" height="26.8997" fill="#D9D9D9"/>
</mask>
<g mask="url(#mask0_44_2725)">
<path d="M7.5495 25.8792H4.18704C3.57059 25.8792 3.04287 25.6597 2.60389 25.2207C2.1649 24.7817 1.9454 24.254 1.9454 23.6376V20.2751H4.18704V23.6376H7.5495V25.8792ZM20.9993 25.8792V23.6376H24.3618V20.2751H26.6034V23.6376C26.6034 24.254 26.3839 24.7817 25.9449 25.2207C25.506 25.6597 24.9782 25.8792 24.3618 25.8792H20.9993ZM14.2744 20.8355C12.0328 20.8355 10.0013 20.1724 8.17996 18.8461C6.35863 17.5198 5.02766 15.7545 4.18704 13.5502C5.02766 11.3459 6.35863 9.58063 8.17996 8.25433C10.0013 6.92803 12.0328 6.26488 14.2744 6.26488C16.5161 6.26488 18.5475 6.92803 20.3689 8.25433C22.1902 9.58063 23.5212 11.3459 24.3618 13.5502C23.5212 15.7545 22.1902 17.5198 20.3689 18.8461C18.5475 20.1724 16.5161 20.8355 14.2744 20.8355ZM14.2744 18.5939C15.9183 18.5939 17.422 18.1456 18.7857 17.2489C20.1494 16.3522 21.1955 15.1193 21.924 13.5502C21.1955 11.9811 20.1494 10.7482 18.7857 9.8515C17.422 8.95484 15.9183 8.50652 14.2744 8.50652C12.6305 8.50652 11.1268 8.95484 9.76312 9.8515C8.39945 10.7482 7.35336 11.9811 6.62482 13.5502C7.35336 15.1193 8.39945 16.3522 9.76312 17.2489C11.1268 18.1456 12.6305 18.5939 14.2744 18.5939ZM14.2744 17.4731C15.3579 17.4731 16.2825 17.0901 17.0484 16.3242C17.8143 15.5583 18.1973 14.6337 18.1973 13.5502C18.1973 12.4667 17.8143 11.5421 17.0484 10.7762C16.2825 10.0103 15.3579 9.62733 14.2744 9.62733C13.191 9.62733 12.2663 10.0103 11.5004 10.7762C10.7345 11.5421 10.3515 12.4667 10.3515 13.5502C10.3515 14.6337 10.7345 15.5583 11.5004 16.3242C12.2663 17.0901 13.191 17.4731 14.2744 17.4731ZM14.2744 15.2314C13.8074 15.2314 13.4104 15.068 13.0835 14.7411C12.7566 14.4142 12.5932 14.0172 12.5932 13.5502C12.5932 13.0832 12.7566 12.6862 13.0835 12.3593C13.4104 12.0324 13.8074 11.869 14.2744 11.869C14.7414 11.869 15.1384 12.0324 15.4653 12.3593C15.7922 12.6862 15.9556 13.0832 15.9556 13.5502C15.9556 14.0172 15.7922 14.4142 15.4653 14.7411C15.1384 15.068 14.7414 15.2314 14.2744 15.2314ZM1.9454 6.82529V3.46283C1.9454 2.84638 2.1649 2.31866 2.60389 1.87967C3.04287 1.44069 3.57059 1.22119 4.18704 1.22119H7.5495V3.46283H4.18704V6.82529H1.9454ZM24.3618 6.82529V3.46283H20.9993V1.22119H24.3618C24.9782 1.22119 25.506 1.44069 25.9449 1.87967C26.3839 2.31866 26.6034 2.84638 26.6034 3.46283V6.82529H24.3618Z" fill="white"/>
</g>
</svg>
