<svg width="17" height="12" viewBox="0 0 17 12" fill="none" xmlns="http://www.w3.org/2000/svg">
<path fill-rule="evenodd" clip-rule="evenodd" d="M8.11379 0.448486C5.8778 0.448486 3.86729 1.34613 2.41876 2.45815C1.69279 3.01501 1.0975 3.63336 0.679851 4.23464C0.26989 4.82566 0 5.44573 0 6.00003C0 6.55433 0.270745 7.1744 0.679851 7.76457C1.09835 8.3667 1.69279 8.98505 2.41876 9.54106C3.86729 10.6548 5.8778 11.5516 8.11379 11.5516C10.3498 11.5516 12.3603 10.6539 13.8088 9.54191C14.5348 8.98505 15.1301 8.3667 15.5469 7.76542C15.9568 7.1744 16.2276 6.55433 16.2276 6.00003C16.2276 5.44573 15.9568 4.82566 15.5469 4.23549C15.1301 3.63336 14.5348 3.01501 13.8088 2.459C12.3603 1.34527 10.3498 0.448486 8.11379 0.448486ZM4.91098 6.00003C4.91098 5.15059 5.24842 4.33594 5.84906 3.7353C6.44971 3.13465 7.26436 2.79722 8.11379 2.79722C8.96323 2.79722 9.77788 3.13465 10.3785 3.7353C10.9792 4.33594 11.3166 5.15059 11.3166 6.00003C11.3166 6.84947 10.9792 7.66412 10.3785 8.26476C9.77788 8.86541 8.96323 9.20284 8.11379 9.20284C7.26436 9.20284 6.44971 8.86541 5.84906 8.26476C5.24842 7.66412 4.91098 6.84947 4.91098 6.00003Z" fill="#212121"/>
<path d="M8.11114 4.07837C7.60148 4.07837 7.11269 4.28083 6.7523 4.64122C6.39192 5.00161 6.18945 5.49039 6.18945 6.00006C6.18945 6.50972 6.39192 6.99851 6.7523 7.3589C7.11269 7.71928 7.60148 7.92175 8.11114 7.92175C8.6208 7.92175 9.10959 7.71928 9.46998 7.3589C9.83037 6.99851 10.0328 6.50972 10.0328 6.00006C10.0328 5.49039 9.83037 5.00161 9.46998 4.64122C9.10959 4.28083 8.6208 4.07837 8.11114 4.07837Z" fill="#212121"/>
</svg>
