<svg width="24" height="24" viewBox="0 0 24 24" fill="none" xmlns="http://www.w3.org/2000/svg">
<mask id="mask0_1090_52" style="mask-type:alpha" maskUnits="userSpaceOnUse" x="0" y="0" width="24" height="24">
<rect width="24" height="24" fill="#D9D9D9"/>
</mask>
<g mask="url(#mask0_1090_52)">
<path d="M4.1155 19.6923V10.6153H4.01925C3.59742 10.6153 3.23875 10.4675 2.94325 10.172C2.64775 9.87654 2.5 9.51795 2.5 9.09629V6.92304C2.5 6.50137 2.64775 6.14279 2.94325 5.84729C3.23875 5.55179 3.59742 5.40404 4.01925 5.40404H7.67125C7.53025 5.2412 7.43442 5.05779 7.38375 4.85379C7.33308 4.64995 7.30775 4.43587 7.30775 4.21154C7.30775 3.4637 7.5695 2.82804 8.093 2.30454C8.6165 1.78104 9.25217 1.51929 10 1.51929C10.3833 1.51929 10.7385 1.5997 11.0655 1.76054C11.3923 1.92154 11.6846 2.13662 11.9423 2.40579C12.1999 2.12629 12.4923 1.9087 12.8193 1.75304C13.1461 1.5972 13.5012 1.51929 13.8845 1.51929C14.6325 1.51929 15.2682 1.78104 15.7917 2.30454C16.3153 2.82804 16.577 3.4637 16.577 4.21154C16.577 4.43337 16.5491 4.64429 16.4932 4.84429C16.4374 5.04429 16.3442 5.23087 16.2135 5.40404H19.9807C20.4026 5.40404 20.7613 5.55179 21.0568 5.84729C21.3523 6.14279 21.5 6.50137 21.5 6.92304V9.09629C21.5 9.51795 21.3523 9.87654 21.0568 10.172C20.7613 10.4675 20.4026 10.6153 19.9807 10.6153H19.8845V19.6923C19.8845 20.1895 19.7075 20.615 19.3535 20.969C18.9995 21.323 18.574 21.5 18.077 21.5H5.923C5.426 21.5 5.0005 21.323 4.6465 20.969C4.2925 20.615 4.1155 20.1895 4.1155 19.6923ZM13.8845 3.01929C13.5467 3.01929 13.2635 3.13354 13.035 3.36204C12.8065 3.59054 12.6923 3.8737 12.6923 4.21154C12.6923 4.54937 12.8065 4.83254 13.035 5.06104C13.2635 5.2897 13.5467 5.40404 13.8845 5.40404C14.2223 5.40404 14.5056 5.2897 14.7343 5.06104C14.9628 4.83254 15.077 4.54937 15.077 4.21154C15.077 3.8737 14.9628 3.59054 14.7343 3.36204C14.5056 3.13354 14.2223 3.01929 13.8845 3.01929ZM8.80775 4.21154C8.80775 4.54937 8.922 4.83254 9.1505 5.06104C9.379 5.2897 9.66217 5.40404 10 5.40404C10.3378 5.40404 10.621 5.2897 10.8495 5.06104C11.078 4.83254 11.1923 4.54937 11.1923 4.21154C11.1923 3.8737 11.078 3.59054 10.8495 3.36204C10.621 3.13354 10.3378 3.01929 10 3.01929C9.66217 3.01929 9.379 3.13354 9.1505 3.36204C8.922 3.59054 8.80775 3.8737 8.80775 4.21154ZM4 6.90379V9.11554H11.25V6.90379H4ZM11.25 20V10.6153H5.61525V19.6923C5.61525 19.7821 5.64417 19.8559 5.702 19.9135C5.75967 19.9712 5.83333 20 5.923 20H11.25ZM12.75 20H18.077C18.1667 20 18.2403 19.9712 18.298 19.9135C18.3558 19.8559 18.3848 19.7821 18.3848 19.6923V10.6153H12.75V20ZM20 9.11554V6.90379H12.75V9.11554H20Z" fill="white"/>
</g>
</svg>
