<svg width="24" height="24" viewBox="0 0 24 24" fill="none" xmlns="http://www.w3.org/2000/svg">
<mask id="mask0_1090_57" style="mask-type:alpha" maskUnits="userSpaceOnUse" x="0" y="0" width="24" height="24">
<rect width="24" height="24" fill="#D9D9D9"/>
</mask>
<g mask="url(#mask0_1090_57)">
<path d="M3.55775 18.5C3.06058 18.5 2.635 18.323 2.281 17.969C1.927 17.615 1.75 17.1894 1.75 16.6923V7.30775C1.75 6.81058 1.927 6.385 2.281 6.031C2.635 5.677 3.06058 5.5 3.55775 5.5H12.9423C13.4394 5.5 13.865 5.677 14.219 6.031C14.573 6.385 14.75 6.81058 14.75 7.30775V16.6923C14.75 17.1894 14.573 17.615 14.219 17.969C13.865 18.323 13.4394 18.5 12.9423 18.5H3.55775ZM17.6585 11C17.3977 11 17.1811 10.9138 17.0087 10.7413C16.8363 10.5689 16.75 10.3523 16.75 10.0915V6.40875C16.75 6.14775 16.8363 5.93108 17.0087 5.75875C17.1811 5.58625 17.3977 5.5 17.6585 5.5H21.3413C21.6023 5.5 21.8189 5.58625 21.9913 5.75875C22.1638 5.93108 22.25 6.14775 22.25 6.40875V10.0915C22.25 10.3523 22.1638 10.5689 21.9913 10.7413C21.8189 10.9138 21.6023 11 21.3413 11H17.6585ZM18.25 9.5H20.75V7H18.25V9.5ZM3.55775 17H12.9423C13.0321 17 13.1058 16.9712 13.1635 16.9135C13.2212 16.8558 13.25 16.7821 13.25 16.6923V7.30775C13.25 7.21792 13.2212 7.14417 13.1635 7.0865C13.1058 7.02883 13.0321 7 12.9423 7H3.55775C3.46792 7 3.39417 7.02883 3.3365 7.0865C3.27883 7.14417 3.25 7.21792 3.25 7.30775V16.6923C3.25 16.7821 3.27883 16.8558 3.3365 16.9135C3.39417 16.9712 3.46792 17 3.55775 17ZM5.25 14.952H11.25C11.4275 14.952 11.5607 14.8699 11.6495 14.7058C11.7383 14.5416 11.7257 14.3826 11.6115 14.2288L9.9865 12.0538C9.893 11.9332 9.7725 11.873 9.625 11.873C9.4775 11.873 9.357 11.9332 9.2635 12.0538L7.75 14.077L6.7365 12.7287C6.643 12.6082 6.5225 12.548 6.375 12.548C6.2275 12.548 6.107 12.6082 6.0135 12.7287L4.8885 14.2288C4.77433 14.3826 4.76167 14.5416 4.8505 14.7058C4.93933 14.8699 5.0725 14.952 5.25 14.952ZM17.6585 18.5C17.3977 18.5 17.1811 18.4137 17.0087 18.2413C16.8363 18.0689 16.75 17.8523 16.75 17.5913V13.9085C16.75 13.6477 16.8363 13.4311 17.0087 13.2588C17.1811 13.0863 17.3977 13 17.6585 13H21.3413C21.6023 13 21.8189 13.0863 21.9913 13.2588C22.1638 13.4311 22.25 13.6477 22.25 13.9085V17.5913C22.25 17.8523 22.1638 18.0689 21.9913 18.2413C21.8189 18.4137 21.6023 18.5 21.3413 18.5H17.6585ZM18.25 17H20.75V14.5H18.25V17Z" fill="white"/>
</g>
</svg>
