<svg width="119" height="132" viewBox="0 0 119 132" fill="none" xmlns="http://www.w3.org/2000/svg">
<path d="M116.698 18.0307C94.6432 15.762 76.2743 9.94602 60.5354 0.293895C59.8935 -0.0979649 59.0858 -0.0979649 58.4231 0.293895C42.7257 9.94602 24.3568 15.762 2.30168 18.0307C1.26623 18.1338 0.5 19 0.5 20.0106V59.2172C0.5 86.5855 16.5495 111.871 41.3796 123.647L58.6302 131.814C58.8994 131.938 59.1894 132 59.4793 132C59.7692 132 60.0798 131.938 60.3491 131.814L77.6204 123.647C102.451 111.871 118.5 86.5855 118.5 59.2172V20.0106C118.5 19 117.734 18.1338 116.698 18.0307ZM108.601 60.3928C108.601 83.1413 95.2645 104.157 74.6176 113.954L60.3491 120.698C60.0798 120.822 59.7899 120.884 59.4793 120.884C59.1894 120.884 58.8994 120.822 58.6302 120.698L44.3824 113.954C23.7355 104.157 10.3989 83.1413 10.3989 60.3928V28.0128C10.3989 26.9816 11.1651 26.1154 12.2006 26.0123C30.3831 24.1355 45.5007 19.3713 58.4231 11.431C59.0858 11.0185 59.8935 11.0185 60.5354 11.4103C73.4993 19.3713 88.6169 24.1355 106.799 26.0123C107.835 26.1154 108.601 26.9816 108.601 28.0128V60.3928Z" fill="#38C1F0"/>
<path d="M83.046 46.6778C82.3626 45.9147 81.3685 45.5022 80.3538 45.5022C79.4426 45.5022 78.5521 45.8528 77.8687 46.4715L51.8582 70.21L42.1042 59.9185C41.4208 59.1967 40.4475 58.7842 39.4328 58.7842C38.5009 58.7842 37.6104 59.1348 36.927 59.7741C36.2229 60.4341 35.8087 61.3416 35.788 62.3315C35.7673 63.3009 36.1193 64.229 36.782 64.9508L49.021 77.8616C49.7044 78.5834 50.6778 78.9959 51.6925 78.9959C52.6037 78.9959 53.4942 78.6453 54.1776 78.0266L82.8389 51.8544C83.5637 51.1945 83.9779 50.3076 84.0193 49.3177C84.04 48.3277 83.7086 47.3996 83.046 46.6778Z" fill="#38C1F0"/>
</svg>
