<svg width="24" height="24" viewBox="0 0 24 24" fill="none" xmlns="http://www.w3.org/2000/svg">
<mask id="mask0_7_236" style="mask-type:alpha" maskUnits="userSpaceOnUse" x="0" y="0" width="24" height="24">
<rect width="24" height="24" fill="#D9D9D9"/>
</mask>
<g mask="url(#mask0_7_236)">
</g>
<g clip-path="url(#clip0_7_236)">
<path d="M12 2C10.0222 2 8.08879 2.58649 6.4443 3.6853C4.79981 4.78412 3.51809 6.3459 2.76121 8.17317C2.00433 10.0004 1.8063 12.0111 2.19215 13.9509C2.578 15.8907 3.53041 17.6725 4.92894 19.0711C6.32746 20.4696 8.10929 21.422 10.0491 21.8079C11.9889 22.1937 13.9996 21.9957 15.8268 21.2388C17.6541 20.4819 19.2159 19.2002 20.3147 17.5557C21.4135 15.9112 22 13.9778 22 12C22 9.34784 20.9464 6.8043 19.0711 4.92893C17.1957 3.05357 14.6522 2 12 2ZM12 20.375C10.3518 20.375 8.74066 19.8863 7.37025 18.9706C5.99984 18.0549 4.93174 16.7534 4.30101 15.2307C3.67028 13.708 3.50525 12.0324 3.82679 10.4159C4.14834 8.79941 4.94201 7.31455 6.10745 6.14911C7.27289 4.98367 8.75774 4.19 10.3743 3.86846C11.9908 3.54691 13.6663 3.71194 15.189 4.34267C16.7118 4.9734 18.0132 6.04151 18.9289 7.41191C19.8446 8.78232 20.3333 10.3935 20.3333 12.0417C20.3267 14.2498 19.4467 16.3656 17.8853 17.9269C16.3239 19.4883 14.2081 20.3684 12 20.375Z" fill="#9D9DA4"/>
<path d="M11.5 15.2915C10.7917 15.2915 10.4167 15.6665 10.4167 16.4165C10.4035 16.5682 10.4227 16.7209 10.473 16.8645C10.5233 17.0082 10.6035 17.1395 10.7083 17.2499C10.8125 17.3512 10.9368 17.4296 11.0732 17.4798C11.2096 17.5301 11.355 17.5511 11.5 17.5415C11.6454 17.555 11.7919 17.5358 11.9289 17.4854C12.0658 17.4349 12.1898 17.3544 12.2917 17.2499C12.487 17.0168 12.5907 16.7206 12.5833 16.4165C12.593 16.2652 12.5721 16.1135 12.522 15.9703C12.4719 15.8272 12.3936 15.6955 12.2917 15.5832C12.1875 15.4819 12.0632 15.4035 11.9268 15.3533C11.7905 15.303 11.645 15.282 11.5 15.2915Z" fill="#9D9DA4"/>
<path d="M14.2084 7.16674C13.5516 6.66839 12.7401 6.41758 11.9167 6.4584C10.9832 6.46301 10.0609 6.66166 9.20836 7.04174C9.08245 7.10378 8.98581 7.21262 8.93909 7.34499C8.89237 7.47735 8.89929 7.62274 8.95836 7.75007L9.16669 8.16674C9.24038 8.28038 9.35233 8.36388 9.48227 8.4021C9.61221 8.44032 9.75154 8.43073 9.87503 8.37507L10.5 8.12507C10.917 7.98851 11.3529 7.91821 11.7917 7.91674C12.207 7.89386 12.6179 8.01126 12.9584 8.25007C13.0944 8.36901 13.2024 8.51668 13.2744 8.6824C13.3465 8.84813 13.3808 9.02778 13.375 9.2084C13.3824 9.53174 13.2955 9.85024 13.125 10.1251C12.8023 10.5368 12.4237 10.9015 12 11.2084C11.5774 11.5058 11.2224 11.8892 10.9584 12.3334C10.7455 12.7444 10.6448 13.2044 10.6667 13.6667C10.6667 14.0417 11.125 14.1251 11.125 14.1251H11.4167C11.4167 14.1251 12 14.1251 12.0834 13.6251C12.0712 13.3593 12.1442 13.0965 12.2917 12.8751C12.545 12.5332 12.8551 12.2372 13.2084 12.0001C13.6157 11.705 13.9925 11.37 14.3334 11.0001C14.539 10.7476 14.7074 10.467 14.8334 10.1667C14.9525 9.86167 15.0092 9.53578 15 9.2084C15.0608 8.82846 15.0196 8.43919 14.8805 8.08044C14.7414 7.72168 14.5094 7.40635 14.2084 7.16674Z" fill="#9D9DA4"/>
</g>
<defs>
<clipPath id="clip0_7_236">
<rect width="20" height="20" fill="white" transform="translate(2 2)"/>
</clipPath>
</defs>
</svg>
