<svg width="395" height="334" viewBox="0 0 395 334" fill="none" xmlns="http://www.w3.org/2000/svg">
<path d="M199.147 5.56C208.56 3.54667 218.067 2.04 227.48 0C230.773 14.8 233.2 29.7867 236.333 44.6267C242.667 78.8533 249.8 112.92 255.907 147.173C246.4 148.693 237.04 151.053 227.52 152.493C217.947 103.533 208.44 54.56 199.147 5.56Z" fill="#38C1F0"/>
<path d="M294.013 30.1866C307.72 27.68 322.653 31 333.267 40.24C345.36 50.3333 350.693 66.1333 352.667 81.2933C354.267 94.2933 352.24 108.173 344.413 118.973C334.667 133.227 316.707 139.667 299.96 139.28C290.16 139.333 280.547 135.787 272.853 129.787C261.613 121.04 255.453 107.293 253.067 93.5333C249.533 77.3066 251.907 58.6933 263.333 46C271.093 37.04 282.427 31.9066 294.013 30.1866ZM295.187 54.04C288.813 55.4666 283.467 60.4666 281.707 66.7866C278.92 76.4133 280.893 86.68 283.493 96.1333C285.787 104.36 291.093 113.093 300.027 115.053C307.533 116.507 316.267 113.84 320.6 107.253C324.12 102.08 324.507 95.4666 324.187 89.4C323.293 79.12 321.413 68.16 314.547 60.0266C309.987 54.4266 302.12 51.9866 295.187 54.04Z" fill="#38C1F0"/>
<path d="M0 44.1066C9.05333 42.1866 18.16 40.52 27.2667 38.84C30.4933 56.6533 34.2533 74.3466 37.44 92.16C42.36 84.1733 50.0133 77.7866 59.2133 75.4666C68.7067 73.2133 79.6533 72.8666 88.04 78.6266C96.9867 84.6133 101.28 95.1733 103.733 105.253C108.267 128.107 112.547 151.013 117.053 173.867C107.52 175.867 97.96 177.813 88.3333 179.293C84.6133 158.08 80.2267 136.973 76.2 115.813C75.1333 110.093 73.5067 103.093 67.56 100.613C57.6133 97.5066 45.1733 102.013 41.3067 112.16C46.2533 136.64 50.8533 161.187 55.5733 185.707C46.12 187.653 36.68 189.787 27.1067 191.133C18.0133 144.533 9.09333 97.8933 0 51.2933V44.1066Z" fill="#38C1F0"/>
<path d="M148.6 58.2C159.587 55.9733 171.587 55.8667 181.827 60.9733C195.76 67.2133 205.213 80.8533 208.813 95.3867C213.2 110.8 213.893 128.427 205.533 142.667C198.773 155.04 185.693 163 172.013 165.347C158.933 168.253 144.427 166.387 133.453 158.373C121.76 150.173 114.947 136.573 112.32 122.813C108.773 107.96 109.8 91.3067 118.307 78.2667C125.093 67.7333 136.533 60.9333 148.6 58.2ZM152.387 81.88C144.867 83.8533 140.28 91.3733 139.507 98.7333C138.507 107.92 140.28 117.2 143.16 125.907C145.6 132.987 150.44 140.053 158 142.2C166.467 144.293 176.72 140.693 180.613 132.533C184.213 124.92 183.267 116.147 181.96 108.093C180.573 99.6533 177.667 90.8133 171.053 84.9867C166.067 80.5067 158.573 79.64 152.387 81.88Z" fill="#38C1F0"/>
<path d="M319.32 155.28C330.413 136.427 359.48 132.48 375.36 147.36C387.093 157.76 392.013 173.453 394.667 188.413V215.347C393.187 221.107 391.173 226.84 387.733 231.76C377.2 247.587 353.053 252.707 337.36 241.653C340.493 257.48 343.48 273.333 346.547 289.173C337.147 291.227 327.653 292.88 318.2 294.68C308.707 246.96 299.507 199.173 290.453 151.373C299.173 149.52 307.947 147.96 316.667 146.16C317.733 149.147 318.613 152.187 319.32 155.28ZM336.547 164.867C331.08 166.707 325.76 171.107 324.987 177.08C327.533 191.027 330.173 205 333.107 218.853C338.8 226.8 350.733 227.173 358.667 222.613C365.84 218.253 367 208.973 366.707 201.32C365.827 189.76 363.92 177.093 355.64 168.307C350.813 163.093 342.933 162.733 336.547 164.867Z" fill="#38C1F0"/>
<path d="M238.053 159.533C250.747 157.467 264.347 160.173 274.573 168.187C285.52 176.387 291.88 189.36 294.387 202.587C298.24 217.72 297.053 234.84 288 247.96C280.253 259.507 266.933 266.347 253.36 268.067C240.653 270.267 226.853 267.693 216.6 259.627C206.08 251.667 199.747 239.307 197.013 226.587C193.107 211.493 193.813 194.413 202.347 180.973C210.013 168.667 223.907 161.293 238.053 159.533ZM239.12 183.373C234.067 184.467 229.253 187.373 226.787 192.027C222.413 199.693 223.613 209.013 224.733 217.373C226.24 225.733 228.933 234.48 235.253 240.493C243.6 248.08 258.573 245.613 264.24 235.973C268.427 229.24 267.6 220.907 266.907 213.387C265.48 204.24 263.067 194.413 256.107 187.813C251.733 183.44 245.053 181.92 239.12 183.373Z" fill="#38C1F0"/>
<path d="M120.547 193.76C131.493 174.733 160.867 171.053 176.64 186.013C188.147 196.427 193.24 211.92 195.64 226.84C198.293 241.107 197.36 256.787 189.467 269.333C179.213 285.827 154.627 291.36 138.547 280.267C141.36 296.133 144.893 311.88 147.507 327.787C138.147 329.72 128.707 331.28 119.347 333.267C114.333 309.84 110.253 286.187 105.467 262.693C101.053 238.36 95.7066 214.187 91.6799 189.8C100.387 188.133 109.053 186.213 117.8 184.8C118.747 187.773 119.693 190.76 120.547 193.76ZM137.72 203.347C132.16 205.173 126.467 209.8 126.12 215.973C128.493 228.893 131.067 241.8 133.56 254.707C134.147 259.413 138.987 262.2 143.16 263.387C150.613 265.093 159.893 263.387 164.373 256.627C168.827 249.2 168.28 240.067 167.04 231.813C165.467 222.72 163.147 212.96 156.253 206.333C151.413 201.547 143.867 201.347 137.72 203.347Z" fill="#38C1F0"/>
</svg>
