<svg width="27" height="28" viewBox="0 0 27 28" fill="none" xmlns="http://www.w3.org/2000/svg">
<path d="M7.37328 21.3197L13.2154 16.3738C11.8213 14.6809 10.7259 13.32 9.73004 12.0586C9.73004 12.0254 9.69685 12.0254 9.66365 11.9922C9.63046 11.959 9.59727 11.9258 9.56407 11.8926C9.53088 11.8594 9.53088 11.8594 9.49768 11.8262L9.46449 11.959L9.4313 12.125L7.37328 21.3197ZM7.00814 17.0045L8.20312 11.6271H8.26951C6.34427 11.1292 4.38583 10.6313 2.42739 10.1333L6.47704 19.2617L7.00814 17.0045ZM6.1451 21.1537C6.11191 21.1205 6.11191 21.1205 6.07872 21.0873L6.04552 21.0541C5.94594 20.9545 5.87955 20.8218 5.81317 20.6558L0.236597 8.14171C-0.128536 7.34506 0.236597 6.41563 1.03325 6.0505L14.344 0.141992C15.1406 -0.22314 16.0701 0.141992 16.4352 0.938645L20.2857 9.60224L25.0324 10.6644C25.9286 10.8636 26.4929 11.7267 26.2938 12.6229L23.3063 26.0332C23.2731 26.1992 23.2067 26.3651 23.1404 26.4979C22.8416 27.029 22.3105 27.3278 21.713 27.3278C21.5803 27.3278 21.4807 27.3278 21.3479 27.2946L7.14092 24.108C6.44385 23.942 5.91275 23.3445 5.84636 22.6474C5.84636 22.5147 5.84636 22.3487 5.87955 22.1827L6.11191 21.1869L6.1451 21.1537ZM18.8252 9.2703L16.4684 3.92609C15.7381 5.32023 14.9747 6.78076 14.2112 8.24129L18.8252 9.2703ZM24.7669 11.9258L10.5599 8.7392C10.3939 8.70601 10.2279 8.80559 10.1616 8.97156L9.9624 9.90099C9.9624 9.90099 9.9624 9.90099 9.99559 9.93418L11.9208 12.3241C12.3192 12.822 12.7175 13.2868 13.1158 13.7847L13.7797 14.6145C14.3772 15.3448 14.9415 16.0419 15.539 16.7721C15.7049 17.0045 15.9041 17.2368 16.0701 17.4692C16.568 17.2368 17.0659 16.9713 17.4974 16.7721C18.792 16.1414 20.1197 15.5108 21.5803 14.8137L22.2441 14.4817C23.074 14.0834 23.9038 13.6851 24.7337 13.2868C24.7669 13.2868 24.7669 13.2536 24.8001 13.2536L24.9992 12.3241C25.0324 12.125 24.9328 11.959 24.7669 11.9258ZM22.2441 24.6391L24.3685 15.1456L23.5387 15.5439C22.0782 16.241 20.5844 16.9713 19.0907 17.7015L22.2441 24.6391ZM21.3811 25.9336L17.8625 18.2658L16.2028 19.0625C15.8045 19.2285 15.4394 19.1621 15.207 18.8301L14.0452 17.4028L7.60563 22.8466L21.3811 25.9336ZM15.7381 2.33279L15.3398 1.40336C15.2402 1.2042 15.0079 1.10461 14.8087 1.2042L1.49796 7.1127C1.2988 7.21229 1.19922 7.44464 1.2988 7.6438L1.69713 8.54004C1.73032 8.54004 1.76351 8.54004 1.76351 8.54004C3.39001 8.97156 4.98332 9.36989 6.54343 9.76821C7.17411 9.93418 7.83799 10.1002 8.46867 10.2661L8.83381 8.70601C8.93339 8.27449 9.19894 7.90936 9.56407 7.677C9.9292 7.44464 10.3607 7.37825 10.7922 7.47784L12.7839 7.90936C13.2154 7.1127 13.6137 6.31605 14.0452 5.4862C14.5763 4.45719 15.1406 3.42818 15.6717 2.39917C15.7049 2.36598 15.7381 2.36598 15.7381 2.33279Z" fill="white"/>
</svg>
