<svg width="30" height="30" viewBox="0 0 30 30" fill="none" xmlns="http://www.w3.org/2000/svg">
<mask id="mask0_44_2716" style="mask-type:alpha" maskUnits="userSpaceOnUse" x="0" y="0" width="30" height="30">
<rect x="0.92337" y="0.62793" width="28.8066" height="28.8066" fill="#D9D9D9"/>
</mask>
<g mask="url(#mask0_44_2716)">
<path d="M6.92475 25.8337C6.2646 25.8337 5.69947 25.5987 5.22936 25.1286C4.75925 24.6585 4.5242 24.0933 4.5242 23.4332V6.62931C4.5242 5.96916 4.75925 5.40403 5.22936 4.93392C5.69947 4.46381 6.2646 4.22876 6.92475 4.22876H14.1264V6.62931H6.92475V23.4332H23.7286V16.2315H26.1292V23.4332C26.1292 24.0933 25.8941 24.6585 25.424 25.1286C24.9539 25.5987 24.3888 25.8337 23.7286 25.8337H6.92475ZM20.1278 13.831V10.2301H16.527V7.82959H20.1278V4.22876H22.5284V7.82959H26.1292V10.2301H22.5284V13.831H20.1278Z" fill="white"/>
</g>
</svg>
