<svg width="18" height="18" viewBox="0 0 18 18" fill="none" xmlns="http://www.w3.org/2000/svg">
<path d="M14.9556 1.05882H14.2941V0.529412C14.2941 0.237035 14.0571 0 13.7647 0C13.4723 0 13.2353 0.237035 13.2353 0.529412V1.05882H4.76471V0.529412C4.76471 0.237035 4.52767 0 4.23529 0C3.94292 0 3.70588 0.237035 3.70588 0.529412V1.05882H3.04444C1.36571 1.05882 0 2.42453 0 4.10326V14.9556C0 16.6343 1.36571 18 3.04444 18H14.9556C16.6343 18 18 16.6343 18 14.9556V4.10326C18 2.42453 16.6343 1.05882 14.9556 1.05882ZM3.04444 2.11765H3.70588V3.17647C3.70588 3.46885 3.94292 3.70588 4.23529 3.70588C4.52767 3.70588 4.76471 3.46885 4.76471 3.17647V2.11765H13.2353V3.17647C13.2353 3.46885 13.4723 3.70588 13.7647 3.70588C14.0571 3.70588 14.2941 3.46885 14.2941 3.17647V2.11765H14.9556C16.0505 2.11765 16.9412 3.00836 16.9412 4.10326V5.29412H1.05882V4.10326C1.05882 3.00836 1.94954 2.11765 3.04444 2.11765ZM14.9556 16.9412H3.04444C1.94954 16.9412 1.05882 16.0505 1.05882 14.9556V6.35294H16.9412V14.9556C16.9412 16.0505 16.0505 16.9412 14.9556 16.9412Z" fill="white"/>
</svg>
