<svg width="140" height="140" viewBox="0 0 140 140" fill="none" xmlns="http://www.w3.org/2000/svg">
<path d="M70 0C31.3895 0 0 31.3895 0 70C0 108.611 31.3895 140 70 140C108.611 140 140 108.611 140 70C140 31.3895 108.611 0 70 0ZM70 40.0842C82.0842 40.0842 91.9579 49.9579 91.9579 62.0421C91.9579 74.1263 82.0842 84 70 84C57.9158 84 48.0421 74.1263 48.0421 62.0421C48.0421 49.9579 57.9158 40.0842 70 40.0842ZM31.6842 112.442V109.2C31.6842 99.9158 39.2 92.2526 48.6316 92.2526H91.3684C100.653 92.2526 108.316 99.7684 108.316 109.2V112.442C98.1474 121.579 84.7368 127.179 70 127.179C55.2632 127.179 41.8526 121.579 31.6842 112.442Z" fill="#242A30"/>
</svg>
