<svg width="24" height="24" viewBox="0 0 24 24" fill="none" xmlns="http://www.w3.org/2000/svg">
<mask id="mask0_1090_47" style="mask-type:alpha" maskUnits="userSpaceOnUse" x="0" y="0" width="24" height="24">
<rect width="24" height="24" fill="#D9D9D9"/>
</mask>
<g mask="url(#mask0_1090_47)">
<path d="M13 20.5192V18.6152H14.9038V20.5192H13ZM11.0963 18.6152V13.9037H13V18.6152H11.0963ZM18.6153 15.423V12H20.5193V15.423H18.6153ZM16.7115 12V10.0962H18.6153V12H16.7115ZM5.38477 13.9037V12H7.28852V13.9037H5.38477ZM3.48077 12V10.0962H5.38477V12H3.48077ZM12 5.38471V3.48071H13.9038V5.38471H12ZM4.67302 7.99996H8.00002V4.67296H4.67302V7.99996ZM3.48077 8.28846V4.38471C3.48077 4.12855 3.56744 3.91388 3.74077 3.74071C3.91394 3.56738 4.12861 3.48071 4.38477 3.48071H8.28852C8.54452 3.48071 8.75919 3.56738 8.93252 3.74071C9.10569 3.91388 9.19227 4.12855 9.19227 4.38471V8.28846C9.19227 8.54446 9.10569 8.75913 8.93252 8.93246C8.75919 9.10563 8.54452 9.19221 8.28852 9.19221H4.38477C4.12861 9.19221 3.91394 9.10563 3.74077 8.93246C3.56744 8.75913 3.48077 8.54446 3.48077 8.28846ZM4.67302 19.327H8.07702V16H4.67302V19.327ZM3.48077 19.6152V15.7115C3.48077 15.4555 3.56744 15.2408 3.74077 15.0675C3.91394 14.8943 4.12861 14.8077 4.38477 14.8077H8.36552C8.62152 14.8077 8.83619 14.8943 9.00952 15.0675C9.18269 15.2408 9.26927 15.4555 9.26927 15.7115V19.6152C9.26927 19.8714 9.18269 20.086 9.00952 20.2592C8.83619 20.4325 8.62152 20.5192 8.36552 20.5192H4.38477C4.12861 20.5192 3.91394 20.4325 3.74077 20.2592C3.56744 20.086 3.48077 19.8714 3.48077 19.6152ZM16 7.99996H19.327V4.67296H16V7.99996ZM14.8078 8.28846V4.38471C14.8078 4.12855 14.8944 3.91388 15.0675 3.74071C15.2409 3.56738 15.4555 3.48071 15.7115 3.48071H19.6153C19.8714 3.48071 20.0861 3.56738 20.2593 3.74071C20.4326 3.91388 20.5193 4.12855 20.5193 4.38471V8.28846C20.5193 8.54446 20.4326 8.75913 20.2593 8.93246C20.0861 9.10563 19.8714 9.19221 19.6153 9.19221H15.7115C15.4555 9.19221 15.2409 9.10563 15.0675 8.93246C14.8944 8.75913 14.8078 8.54446 14.8078 8.28846ZM16.7115 20.5192V17.3267H14.8078V15.423H18.6153V18.6152H20.5193V20.5192H16.7115ZM13 13.9037V12H16.7115V13.9037H13ZM9.19227 13.9037V12H7.28852V10.0962H13V12H11.0963V13.9037H9.19227ZM10.0963 9.19221V5.38471H12V7.28846H13.9038V9.19221H10.0963ZM5.64427 7.02871V5.64421H7.02877V7.02871H5.64427ZM5.71152 18.2885V16.9037H7.09627V18.2885H5.71152ZM16.9713 7.02871V5.64421H18.3558V7.02871H16.9713Z" fill="white"/>
</g>
</svg>
