<svg width="29" height="30" viewBox="0 0 29 30" fill="none" xmlns="http://www.w3.org/2000/svg">
<mask id="mask0_44_2799" style="mask-type:alpha" maskUnits="userSpaceOnUse" x="0" y="0" width="29" height="30">
<rect y="0.27832" width="29" height="29" fill="#D9D9D9"/>
</mask>
<g mask="url(#mask0_44_2799)">
<path d="M1.20834 24.4449V21.0616C1.20834 20.3768 1.38456 19.7475 1.73699 19.1736C2.08942 18.5996 2.55765 18.1616 3.14168 17.8595C4.39029 17.2352 5.65904 16.767 6.94793 16.4548C8.23682 16.1426 9.54584 15.9866 10.875 15.9866C12.2042 15.9866 13.5132 16.1426 14.8021 16.4548C16.091 16.767 17.3597 17.2352 18.6083 17.8595C19.1924 18.1616 19.6606 18.5996 20.013 19.1736C20.3655 19.7475 20.5417 20.3768 20.5417 21.0616V24.4449H1.20834ZM22.9583 24.4449V20.8199C22.9583 19.9338 22.7116 19.0829 22.2182 18.2673C21.7248 17.4517 21.025 16.7519 20.1188 16.1678C21.1458 16.2887 22.1125 16.4951 23.0188 16.7871C23.925 17.0791 24.7708 17.4366 25.5563 17.8595C26.2813 18.2623 26.8351 18.7104 27.2177 19.2038C27.6004 19.6972 27.7917 20.2359 27.7917 20.8199V24.4449H22.9583ZM10.875 14.7782C9.54584 14.7782 8.408 14.305 7.46147 13.3584C6.51494 12.4119 6.04168 11.2741 6.04168 9.94491C6.04168 8.61574 6.51494 7.47789 7.46147 6.53136C8.408 5.58484 9.54584 5.11157 10.875 5.11157C12.2042 5.11157 13.342 5.58484 14.2886 6.53136C15.2351 7.47789 15.7083 8.61574 15.7083 9.94491C15.7083 11.2741 15.2351 12.4119 14.2886 13.3584C13.342 14.305 12.2042 14.7782 10.875 14.7782ZM22.9583 9.94491C22.9583 11.2741 22.4851 12.4119 21.5386 13.3584C20.592 14.305 19.4542 14.7782 18.125 14.7782C17.9035 14.7782 17.6215 14.7531 17.2792 14.7027C16.9368 14.6524 16.6549 14.597 16.4333 14.5366C16.9771 13.8921 17.395 13.1772 17.687 12.3918C17.979 11.6064 18.125 10.7907 18.125 9.94491C18.125 9.09907 17.979 8.28345 17.687 7.49803C17.395 6.71261 16.9771 5.99768 16.4333 5.35324C16.7153 5.25254 16.9972 5.18709 17.2792 5.15688C17.5611 5.12668 17.8431 5.11157 18.125 5.11157C19.4542 5.11157 20.592 5.58484 21.5386 6.53136C22.4851 7.47789 22.9583 8.61574 22.9583 9.94491ZM3.62501 22.0282H18.125V21.0616C18.125 20.84 18.0696 20.6387 17.9589 20.4574C17.8481 20.2762 17.7021 20.1352 17.5208 20.0345C16.4333 19.4907 15.3358 19.0829 14.2281 18.8111C13.1205 18.5392 12.0028 18.4032 10.875 18.4032C9.74723 18.4032 8.62952 18.5392 7.52188 18.8111C6.41425 19.0829 5.31668 19.4907 4.22918 20.0345C4.04793 20.1352 3.90192 20.2762 3.79116 20.4574C3.68039 20.6387 3.62501 20.84 3.62501 21.0616V22.0282ZM10.875 12.3616C11.5396 12.3616 12.1085 12.1249 12.5818 11.6517C13.055 11.1784 13.2917 10.6095 13.2917 9.94491C13.2917 9.28032 13.055 8.7114 12.5818 8.23813C12.1085 7.76487 11.5396 7.52824 10.875 7.52824C10.2104 7.52824 9.6415 7.76487 9.16824 8.23813C8.69497 8.7114 8.45834 9.28032 8.45834 9.94491C8.45834 10.6095 8.69497 11.1784 9.16824 11.6517C9.6415 12.1249 10.2104 12.3616 10.875 12.3616Z" fill="white"/>
</g>
</svg>
